<?xml version="1.0" encoding="UTF-8"?>
<svg width="36px" height="36px" viewBox="0 0 36 36" version="1.1" xmlns="http://www.w3.org/2000/svg" xmlns:xlink="http://www.w3.org/1999/xlink">
    <title>0A8395AD-04FC-4C20-BDA9-465600F6CCF2</title>
    <g id="Page-1" stroke="none" stroke-width="1" fill="none" fill-rule="evenodd">
        <g id="map-view_favorite-model" transform="translate(-235.000000, -542.000000)">
            <g id="Group-23" transform="translate(0.000000, 210.000000)">
                <g id="Group-57" transform="translate(29.000000, 332.000000)">
                    <g id="icon_thumbsup" transform="translate(206.000000, 0.000000)">
                        <g id="Group-4" transform="translate(4.000000, 0.000000)">
                            <path d="M14.5,35.5 C24.1666667,27.5402757 29,20.7069424 29,15 C29,6.43958638 23.0604136,0 14.5,0 C5.93958638,0 0,6.43958638 0,15 C0,20.7069424 4.83333333,27.5402757 14.5,35.5 Z" id="Oval" fill="#062D66"></path>
                            <g id="icon_thumbsup" transform="translate(6.500000, 6.500000)" fill="#FFFFFF" fill-rule="nonzero">
                                <path d="M6.9,0.201257862 C7.15,-1.687539e-14 7.5,-0.0503144654 7.8,0.0503144654 C9.55,0.553459119 10.5,2.36477987 10.5,3.9245283 L10.5,3.9245283 L10.5,5.93710692 L14,5.93710692 C15.1,5.93710692 16,6.8427673 16,7.94968553 L16,7.94968553 L16,8 L15.25,14.0377358 C15.05,15.1949686 14.1,16 13,16 L13,16 L8,16 C6.95,16 5.9,15.7484277 4.95,15.2955975 L4.95,15.2955975 L4,14.7924528 L4,6.99371069 L6.5,3.77358491 L6.5,1.00628931 C6.5,0.65408805 6.65,0.402515723 6.9,0.201257862 Z M2.5,6.44025157 C2.8,6.44025157 3,6.64150943 3,6.94339623 L3,6.94339623 L3,15.4968553 C3,15.7987421 2.8,16 2.5,16 L2.5,16 L0.5,16 C0.2,16 0,15.7987421 0,15.4968553 L0,15.4968553 L0,6.94339623 C0,6.64150943 0.2,6.44025157 0.5,6.44025157 L0.5,6.44025157 Z" id="Combined-Shape"></path>
                            </g>
                        </g>
                    </g>
                </g>
            </g>
        </g>
    </g>
</svg>