<?xml version="1.0" encoding="UTF-8"?>
<svg width="14px" height="14px" viewBox="0 0 14 14" version="1.1" xmlns="http://www.w3.org/2000/svg" xmlns:xlink="http://www.w3.org/1999/xlink">
    <title>6A0F0224-A4C9-4E88-A506-C9725877E7F0</title>
    <g id="Page-1" stroke="none" stroke-width="1" fill="none" fill-rule="evenodd">
        <g id="map-view_favorite-model" transform="translate(-174.000000, -570.000000)" fill="#70C36F" fill-rule="nonzero">
            <g id="Group-23" transform="translate(0.000000, 210.000000)">
                <g id="Group-57" transform="translate(29.000000, 332.000000)">
                    <g id="Group-58" transform="translate(145.500000, 28.500000)">
                        <g id="icon_like" transform="translate(0.500000, 0.500000)">
                            <path d="M5.175,0.150943396 C5.3625,-1.24344979e-14 5.625,-0.0377358491 5.85,0.0377358491 C7.1625,0.41509434 7.875,1.77358491 7.875,2.94339623 L7.875,2.94339623 L7.875,4.45283019 L10.5,4.45283019 C11.325,4.45283019 12,5.13207547 12,5.96226415 L12,5.96226415 L12,6 L11.4375,10.5283019 C11.2875,11.3962264 10.575,12 9.75,12 L9.75,12 L6,12 C5.2125,12 4.425,11.8113208 3.7125,11.4716981 L3.7125,11.4716981 L3,11.0943396 L3,5.24528302 L4.875,2.83018868 L4.875,0.754716981 C4.875,0.490566038 4.9875,0.301886792 5.175,0.150943396 Z M1.875,4.83018868 C2.1,4.83018868 2.25,4.98113208 2.25,5.20754717 L2.25,5.20754717 L2.25,11.6226415 C2.25,11.8490566 2.1,12 1.875,12 L1.875,12 L0.375,12 C0.15,12 0,11.8490566 0,11.6226415 L0,11.6226415 L0,5.20754717 C0,4.98113208 0.15,4.83018868 0.375,4.83018868 L0.375,4.83018868 Z" id="Combined-Shape-Copy-2"></path>
                        </g>
                    </g>
                </g>
            </g>
        </g>
    </g>
</svg>